[img]http://img534.imageshack.us/img534/2526/thedescen.jpg[/img]
[code]
The Descendants 2011 DVDSCR XViD AC3-26K

Imdb: 
http://www.imdb.com/title/tt1033575/

Plot:
A land baron tries to re-connect with his two daughters after his wife suffers a boating accident.

Sources:
ZOMBIESS! THNXS

Notes:
ENJOY!! ADDED FEW FILTERS TO THE VIDEO TO MAKE IT LOOK NICE AND ALSO IS IN SYNC!

Greetz:
Xtreme Encode|FYA|ILLUMANTI|CM8|RX|VISION|HDSCENE|NIGHTMAREZ|xTriLL|DTRG|CRYS|REMIXHD|BIDA|RX|REFILL|INSPiRAL|SIC
To all the people who have helped me :P you know who you are

Anything to offer email us @: 26k@hushmail.me

Video
ID                                       : 0
Format                                   : MPEG-4 Visual
Format profile                           : Advanced Simple@L5
Format settings, BVOP                    : 2
Format settings, QPel                    : No
Format settings, GMC                     : No warppoints
Format settings, Matrix                  : Default (H.263)
Codec ID                                 : XVID
Codec ID/Hint                            : XviD
Duration                                 : 2h 0mn
Bit rate                                 : 1 614 Kbps
Width                                    : 720 pixels
Height                                   : 304 pixels
Display aspect ratio                     : 2.35:1
Frame rate                               : 23.976 fps
Color space                              : YUV
Chroma subsampling                       : 4:2:0
Bit depth                                : 8 bits
Scan type                                : Progressive
Compression mode                         : Lossy
Bits/(Pixel*Frame)                       : 0.308
Stream size                              : 1.36 GiB (88%)
Writing library                          : XviD 63

Audio
ID                                       : 1
Format                                   : AC-3
Format/Info                              : Audio Coding 3
Mode extension                           : CM (complete main)
Codec ID                                 : 2000
Duration                                 : 1h 55mn
Bit rate mode                            : Constant
Bit rate                                 : 224 Kbps
Channel(s)                               : 2 channels
Channel positions                        : Front: L R
Sampling rate                            : 48.0 KHz
Bit depth                                : 16 bits
Compression mode                         : Lossy
Stream size                              : 185 MiB (12%)
Alignment                                : Aligned on interleaves
Interleave, duration                     : 33 ms (0.80 video frame)

[/code]
Screens:
[img]http://img827.imageshack.us/img827/601/vlcsnap2012011621h00m29.png[/img]
[img]http://img233.imageshack.us/img233/8948/vlcsnap2012011621h00m41.png[/img]
[img]http://img823.imageshack.us/img823/9631/vlcsnap2012011621h00m53.png[/img]
[img]http://img27.imageshack.us/img27/2087/vlcsnap2012011621h01m00.png[/img]
[img]http://img841.imageshack.us/img841/3118/vlcsnap2012011621h01m04.png[/img]
[img]http://img62.imageshack.us/img62/8258/vlcsnap2012011621h01m07.png[/img]

[img]http://img851.imageshack.us/img851/5503/26ks.jpg[/img]
Thank you smallz for banner!